<svg xmlns="http://www.w3.org/2000/svg" xmlns:xlink="http://www.w3.org/1999/xlink" width="100%" height="100%">
  <defs>
    <linearGradient id="linear-gradient" x1="0%" y1="0%" x2="0%" y2="100%">
      <stop offset="0%" style="stop-color:#33C899;" />
      <stop offset="100%" style="stop-color:#334399;" />
    </linearGradient>
    <linearGradient id="linear-gradient-op" x1="0%" y1="0%" x2="0%" y2="100%">
      <stop offset="0%" style="stop-color:rgba(255, 255,255,0.1);" />
      <stop offset="85%" style="stop-color:rgba(196,196,196,0);" />
    </linearGradient>
  </defs>
  <g>
    <path d="M 0 0 L 0 0 L 887 0 L 887 666 L 150 350 Q 0 300 0 200" fill="url(#linear-gradient)"></path>
    <path d="M 900 0 L 900 250 L 450 700 L 300 550 L 850 0 L 850 0 " fill="url(#linear-gradient-op)"></path>
    <path d="M 400 0 L 650 0 L 200 500 L 50 350 L 400 0 " fill="url(#linear-gradient-op)"></path>
    <path d="M 0 250 A 50 50 0 1 1 150 400 " fill="none" stroke="rgba(255, 255,255,0.1)" stroke-width="2" stroke-dasharray="5,5"></path>
    <path d="M 0 200 A 50 50 0 1 1 180 450 " fill="none" stroke="rgba(255, 255,255,0.1)" stroke-width="2"></path>
    <path d="M 0 150 A 50 50 0 1 1 200 500 " fill="none" stroke="rgba(255, 255,255,0.1)" stroke-width="2" stroke-dasharray="5,5"></path>
  </g>
</svg>